# xmcd
#
# Track frame offsets: 
#        150
#        25590
#        45070
#        75012
#        88340
#        116322
#        144005
#        165930
#        186575
#        201022
#
# Disc length: 3071 seconds
#
# Revision: 3
# Processed by: cddbd v1.5.1PL0 Copyright (c) Steve Scherf et al.
# Submitted via: ExactAudioCopy v0.95a4
#
DISCID=640bfd0a
DTITLE=Sugar Blue - In Your Eyes
DYEAR=1995
DGENRE=Electric Harmonica Blues
TTITLE0=Gucci Gucci Man
TTITLE1=Bottom Line
TTITLE2=In Your Eyes
TTITLE3=She
TTITLE4=Bluepine
TTITLE5=Lip Service And Lies
TTITLE6=Whirlwind
TTITLE7=Listen Baby
TTITLE8=Love's Sweet Secrets
TTITLE9=Little Red Rooster
EXTD=
EXTT0=
EXTT1=
EXTT2=
EXTT3=
EXTT4=
EXTT5=
EXTT6=
EXTT7=
EXTT8=
EXTT9=
PLAYORDER=
